<svg id="Capa_1" enable-background="new 0 0 512 512" height="512" viewBox="0 0 512 512" width="512" xmlns="http://www.w3.org/2000/svg"><g><g fill="#020288"><path d="m374.3 366.8h-236.6c-5.5 0-10 4.5-10 10s4.5 10 10 10h236.7c5.5 0 10-4.5 10-10s-4.5-10-10.1-10z"/><path d="m317.9 403.6h-123.8c-5.5 0-10 4.5-10 10s4.5 10 10 10h123.9c5.5 0 10-4.5 10-10s-4.5-10-10.1-10z"/><path d="m512 102.2c.4-15-5.1-29.2-15.6-40.1-10.6-11-25.5-17.3-40.8-17.3-3.8 0-7.5.4-11.2 1.1-4.7.9-8 5-8 9.8v18.5h-360.7v-18.5c0-4.8-3.4-8.9-8-9.8-3.7-.7-7.5-1.1-11.2-1.1-15.3 0-30.2 6.3-40.8 17.3-10.6 10.8-16.1 25.1-15.7 40.1v303.9c-.3 15.7 6.1 31.5 17.7 43.3 11.2 11.5 25.6 17.8 40.6 17.8h395.3c15 0 29.4-6.3 40.6-17.8 11.5-11.8 18-27.6 17.7-43.3zm-55.7-37.4c9.8.2 18.9 4.2 25.7 11.2s10.3 16.1 10 25.7v.3 263.1c-10-8.4-22.5-13-35.7-13.2zm-426.3 11.2c6.8-7 15.9-11 25.7-11.2v287.1c-13.2.2-25.7 4.8-35.7 13.2v-263.1c0-.1 0-.2 0-.3-.3-9.6 3.3-18.7 10-25.7zm450 359.4c-7.4 7.6-16.8 11.7-26.3 11.7h-395.4c-9.6 0-18.9-4.2-26.3-11.7-7.8-8-12.2-18.6-12-29 .6-19.1 17-34.5 36.4-34.5 2.5 0 4.9.2 7.3.7 2.9.6 6-.2 8.3-2.1s3.7-4.7 3.7-7.7v-268.6h360.6v268.6c0 3 1.3 5.8 3.7 7.7 2.3 1.9 5.4 2.7 8.3 2.1 2.4-.5 4.8-.7 7.3-.7 19.5 0 35.8 15.5 36.4 34.5.2 10.5-4.2 21-12 29z"/></g><g><g><g><g><g><g><g><circle cx="213" cy="165.7" fill="#e2c4ff" r="36.3"/></g></g></g></g></g></g><path d="m288.1 202-65.2 78.8-29.7-36.5-75.9 86.8h64.1 36.7 176.6z" fill="#e2c4ff"/></g></g></svg>